<svg xmlns="http://www.w3.org/2000/svg" width="27" height="26" viewBox="0 0 27 26"  fill="#000000">
<g clip-path="url(#clip0)">
	<path d="M22.615 9.167L17.905 1a2.036 2.036 0 00-1.753-1H6.731a2.025 2.025 0 00-1.753 1.012L.268 9.176a2.043 2.043 0 000 2.024l4.71 8.164a2.015 2.015 0 001.753 1.012h9.42a2.025 2.025 0 001.753-1.012l4.71-8.164a2.059 2.059 0 00.001-2.033zm-11.174 8.025v-1.4a5.609 5.609 0 10-5.609-5.609 5.539 5.539 0 001.143 3.384l1.012-.986a4.16 4.16 0 01-.75-2.4 4.213 4.213 0 114.213 4.213v-1.4a2.809 2.809 0 10-2.817-2.809 2.765 2.765 0 00.375 1.4l1.047-1.021a1.343 1.343 0 01-.052-.375 1.439 1.439 0 111.439 1.439 1.3 1.3 0 01-.41-.07l-3.62 3.532a.56.56 0 01-.113.087c-.009.009-.026.009-.035.017a.407.407 0 01-.087.044c-.017.009-.035.009-.052.017l-.079.026a.111.111 0 00-.049.01c-.026 0-.052.009-.07.009-.026 0-.052-.009-.079-.009a.17.17 0 01-.061-.009l-.079-.026c-.017-.009-.035-.009-.052-.017a.354.354 0 01-.079-.044.191.191 0 01-.044-.026.5.5 0 01-.07-.061c-.009-.009-.026-.017-.035-.035a7.007 7.007 0 115.015 2.12zM28.285 3.62h4.309c4.169-.044"/></g>
<defs>
<clipPath id="clip0">
<rect width="27" height="26" fill="white"/>
</clipPath>
</defs>
</svg>